<svg width="159" height="48" viewBox="0 0 159 48" fill="none" xmlns="http://www.w3.org/2000/svg">
<path d="M41.3036 18.9806C41.604 18.9074 41.9089 18.8663 42.2184 18.8572C42.5279 18.8389 42.8237 18.8297 43.1059 18.8297C43.3699 18.8297 43.6839 18.8526 44.048 18.8983C44.4213 18.9349 44.7489 19.0034 45.0311 19.104L45.195 19.3372L40.0337 37.7143C39.5513 37.7692 39.0142 37.8057 38.4226 37.824C37.8309 37.8514 37.2665 37.8652 36.7295 37.8652C35.9466 37.8652 35.3322 37.7372 34.8862 37.4812C34.4401 37.2252 34.1124 36.7223 33.9031 35.9726L29.3016 19.3509C29.6749 19.1863 30.0708 19.0446 30.4895 18.9257C30.9174 18.8069 31.3589 18.7474 31.814 18.7474C32.433 18.7474 32.9154 18.912 33.2613 19.2412C33.6072 19.5703 33.8712 20.096 34.0533 20.8183L36.2516 28.9097C36.3972 29.4309 36.5337 29.9749 36.6612 30.5417C36.7886 31.0994 36.907 31.6617 37.0162 32.2286C37.1254 32.7863 37.2256 33.3303 37.3166 33.8606C37.3439 34.0069 37.3757 34.0983 37.4122 34.1349C37.4577 34.1714 37.5214 34.1897 37.6033 34.1897L41.3036 18.9806Z" fill="black"/>
<path d="M48.0401 18.9806C48.3678 18.9166 48.732 18.8754 49.1325 18.8572C49.5421 18.8389 49.8743 18.8297 50.1292 18.8297C50.4114 18.8297 50.7437 18.8389 51.126 18.8572C51.5174 18.8754 51.8815 18.9166 52.2183 18.9806V37.7143C51.8815 37.7783 51.5174 37.8194 51.126 37.8377C50.7437 37.856 50.4114 37.8652 50.1292 37.8652C49.8743 37.8652 49.5421 37.856 49.1325 37.8377C48.732 37.8194 48.3678 37.7783 48.0401 37.7143V18.9806Z" fill="black"/>
<path d="M55.2672 36.0823C55.3218 35.488 55.5039 34.9029 55.8134 34.3269C56.132 33.7509 56.4915 33.2892 56.892 32.9417C57.6658 33.408 58.5396 33.824 59.5136 34.1897C60.4876 34.5554 61.4571 34.7383 62.4219 34.7383C63.2594 34.7383 63.8693 34.5417 64.2516 34.1486C64.6339 33.7463 64.8251 33.3029 64.8251 32.8183C64.8251 32.4709 64.7113 32.1052 64.4837 31.7212C64.2652 31.328 63.7691 30.9714 62.9954 30.6514L59.7048 29.2663C58.576 28.7909 57.643 28.16 56.9057 27.3737C56.1775 26.5874 55.8134 25.5452 55.8134 24.2469C55.8134 23.1223 56.1047 22.1349 56.6872 21.2846C57.2698 20.4343 58.0572 19.7714 59.0494 19.296C60.0507 18.8206 61.1658 18.5829 62.3946 18.5829C63.669 18.5829 64.866 18.7474 65.9857 19.0766C67.1053 19.4057 68.0201 19.7577 68.7301 20.1326C68.6937 20.7269 68.5481 21.3074 68.2932 21.8743C68.0383 22.432 67.7106 22.8983 67.3101 23.2732C66.6092 22.9349 65.799 22.6286 64.8797 22.3543C63.9603 22.08 63.1365 21.9429 62.4083 21.9429C61.5981 21.9429 61.0065 22.1303 60.6333 22.5052C60.2691 22.88 60.0871 23.2777 60.0871 23.6983C60.0871 24.0823 60.2145 24.4206 60.4694 24.7132C60.7334 24.9966 61.1703 25.2663 61.7802 25.5223L65.1254 26.9212C65.9902 27.2777 66.7275 27.7257 67.3374 28.2652C67.9564 28.7954 68.4252 29.4034 68.7438 30.0892C69.0715 30.7657 69.2353 31.5017 69.2353 32.2972C69.2353 33.3943 68.9713 34.3817 68.4434 35.2594C67.9245 36.1372 67.1371 36.832 66.0812 37.344C65.0344 37.856 63.7191 38.112 62.1352 38.112C61.0247 38.112 59.8504 37.9383 58.6125 37.5909C57.3836 37.2343 56.2685 36.7314 55.2672 36.0823Z" fill="black"/>
<path d="M76.7523 18.9806C77.0891 18.9349 77.4896 18.8983 77.9539 18.8709C78.4181 18.8434 78.8232 18.8297 79.1691 18.8297C79.5059 18.8297 79.9064 18.8434 80.3706 18.8709C80.844 18.8983 81.2445 18.944 81.5722 19.008L87.4844 37.44C87.1931 37.6046 86.8199 37.728 86.3648 37.8103C85.9096 37.9017 85.4818 37.9474 85.0813 37.9474C84.4259 37.9474 83.9116 37.7966 83.5384 37.4949C83.1652 37.184 82.8511 36.5806 82.5963 35.6846L80.5072 28.3749C80.2887 27.5977 80.0384 26.7017 79.7562 25.6869C79.4831 24.672 79.2374 23.7212 79.0189 22.8343H78.855C78.7185 23.5749 78.5182 24.4252 78.2543 25.3852C77.9994 26.336 77.7673 27.168 77.5579 27.8812L74.6359 37.7417C74.3811 37.8057 74.1034 37.8469 73.803 37.8652C73.5027 37.8834 73.1932 37.8926 72.8746 37.8926C72.556 37.8926 72.201 37.8697 71.8095 37.824C71.4181 37.7783 71.0995 37.7097 70.8538 37.6183L70.7036 37.3989L76.7523 18.9806ZM76.9981 33.7097C76.8707 33.7097 76.7159 33.7097 76.5339 33.7097C76.3518 33.7006 76.1697 33.696 75.9877 33.696C75.8147 33.6869 75.6645 33.6823 75.5371 33.6823H73.3661L74.6496 30.4046H76.5475C76.6749 30.4046 76.8251 30.4046 76.9981 30.4046C77.171 30.3954 77.344 30.3909 77.5169 30.3909C77.6899 30.3817 77.8355 30.3772 77.9539 30.3772H80.0429C80.1704 30.3772 80.3206 30.3817 80.4935 30.3909C80.6665 30.3909 80.8394 30.3954 81.0124 30.4046C81.1853 30.4046 81.3355 30.4046 81.463 30.4046H83.4292L84.4805 33.6823H82.3232C82.1957 33.6823 82.041 33.6869 81.8589 33.696C81.6769 33.696 81.4948 33.7006 81.3128 33.7097C81.1398 33.7097 80.9896 33.7097 80.8622 33.7097H76.9981Z" fill="black"/>
<path d="M88.069 19.2274C88.3876 19.0903 88.7426 18.976 89.134 18.8846C89.5254 18.7932 89.9077 18.7474 90.2809 18.7474C91.0092 18.7474 91.5371 18.9074 91.8648 19.2274C92.2016 19.5383 92.4383 20.1417 92.5748 21.0377L93.8037 28.4297C93.9038 29.0057 94.004 29.632 94.1041 30.3086C94.2042 30.9852 94.2952 31.6389 94.3772 32.2697C94.4682 32.8914 94.5365 33.4217 94.582 33.8606C94.6002 34.0343 94.6229 34.1394 94.6502 34.176C94.6867 34.2034 94.7504 34.2172 94.8414 34.2172L97.2036 19.3509C97.6132 19.2777 98.0592 19.2274 98.5417 19.2C99.0241 19.1634 99.4656 19.1452 99.8661 19.1452C100.294 19.1452 100.745 19.1634 101.218 19.2C101.7 19.2274 102.137 19.2777 102.529 19.3509L104.713 33.8606C104.741 34.0343 104.772 34.1394 104.809 34.176C104.854 34.2034 104.918 34.2172 105 34.2172C105.055 33.7052 105.127 33.1109 105.218 32.4343C105.31 31.7577 105.41 31.0629 105.519 30.3497C105.628 29.6366 105.733 28.9829 105.833 28.3886L107.458 18.9806C107.767 18.9166 108.086 18.8754 108.414 18.8572C108.741 18.8389 109.046 18.8297 109.328 18.8297C109.647 18.8297 109.984 18.8526 110.339 18.8983C110.694 18.944 111.012 19.0126 111.295 19.104L111.499 19.3509L107.84 37.6869C107.367 37.7417 106.789 37.7829 106.106 37.8103C105.432 37.8469 104.823 37.8652 104.276 37.8652C103.657 37.8652 103.111 37.76 102.638 37.5497C102.165 37.3394 101.864 36.8137 101.737 35.9726L100.754 29.8423C100.59 28.7909 100.43 27.6846 100.276 26.5234C100.13 25.3623 100.012 24.3292 99.9207 23.424H99.7159C99.6067 24.3292 99.4701 25.3623 99.3063 26.5234C99.1424 27.6754 98.9695 28.7817 98.7874 29.8423L97.4766 37.6869C96.976 37.7417 96.4071 37.7829 95.7699 37.8103C95.1418 37.8469 94.5456 37.8652 93.9812 37.8652C93.3167 37.8652 92.7478 37.76 92.2744 37.5497C91.8102 37.3394 91.4962 36.8092 91.3323 35.9589L88.069 19.2274Z" fill="black"/>
<path d="M118.115 18.9806C118.451 18.9349 118.852 18.8983 119.316 18.8709C119.78 18.8434 120.185 18.8297 120.531 18.8297C120.868 18.8297 121.269 18.8434 121.733 18.8709C122.206 18.8983 122.607 18.944 122.934 19.008L128.847 37.44C128.555 37.6046 128.182 37.728 127.727 37.8103C127.272 37.9017 126.844 37.9474 126.444 37.9474C125.788 37.9474 125.274 37.7966 124.901 37.4949C124.527 37.184 124.213 36.5806 123.958 35.6846L121.869 28.3749C121.651 27.5977 121.401 26.7017 121.118 25.6869C120.845 24.672 120.6 23.7212 120.381 22.8343H120.217C120.081 23.5749 119.88 24.4252 119.617 25.3852C119.362 26.336 119.13 27.168 118.92 27.8812L115.998 37.7417C115.743 37.8057 115.466 37.8469 115.165 37.8652C114.865 37.8834 114.555 37.8926 114.237 37.8926C113.918 37.8926 113.563 37.8697 113.172 37.824C112.78 37.7783 112.462 37.7097 112.216 37.6183L112.066 37.3989L118.115 18.9806ZM118.36 33.7097C118.233 33.7097 118.078 33.7097 117.896 33.7097C117.714 33.7006 117.532 33.696 117.35 33.696C117.177 33.6869 117.027 33.6823 116.899 33.6823H114.728L116.012 30.4046H117.91C118.037 30.4046 118.187 30.4046 118.36 30.4046C118.533 30.3954 118.706 30.3909 118.879 30.3909C119.052 30.3817 119.198 30.3772 119.316 30.3772H121.405C121.533 30.3772 121.683 30.3817 121.856 30.3909C122.029 30.3909 122.202 30.3954 122.375 30.4046C122.548 30.4046 122.698 30.4046 122.825 30.4046H124.791L125.843 33.6823H123.685C123.558 33.6823 123.403 33.6869 123.221 33.696C123.039 33.696 122.857 33.7006 122.675 33.7097C122.502 33.7097 122.352 33.7097 122.224 33.7097H118.36Z" fill="black"/>
<path d="M133.41 29.4172H137.588V37.7143C137.251 37.7783 136.892 37.8194 136.51 37.8377C136.136 37.856 135.809 37.8652 135.526 37.8652C135.272 37.8652 134.939 37.856 134.53 37.8377C134.12 37.8194 133.747 37.7783 133.41 37.7143V29.4172ZM138.954 18.9806C139.245 18.9166 139.532 18.8754 139.814 18.8572C140.096 18.8389 140.374 18.8297 140.647 18.8297C141.002 18.8297 141.361 18.8526 141.725 18.8983C142.09 18.944 142.413 19.0172 142.695 19.1177L142.859 19.3509L137.37 32.448H133.683L128.14 19.4743C128.513 19.264 128.922 19.0949 129.369 18.9669C129.815 18.8297 130.256 18.7612 130.693 18.7612C131.285 18.7612 131.74 18.8937 132.058 19.1589C132.377 19.424 132.655 19.8537 132.891 20.448L134.311 23.9863C134.53 24.5532 134.744 25.1612 134.953 25.8103C135.162 26.4594 135.358 27.1406 135.54 27.8537H135.69C135.809 27.4057 135.941 26.9486 136.086 26.4823C136.232 26.016 136.382 25.5589 136.537 25.1109C136.701 24.6629 136.86 24.2423 137.015 23.8492L138.954 18.9806Z" fill="black"/>
<path fill-rule="evenodd" clip-rule="evenodd" d="M17.9978 43.3281C20.5208 32.8971 19.5204 21.9194 15.1533 12.1223C23.8314 8.6219 33.1615 7.04718 42.5022 7.50735C42.9362 8.94698 43.3244 10.3982 43.667 11.8579L52.0194 13.536H26.0885V48L24.9804 43.2663C22.6597 43.4062 20.329 43.4278 17.9978 43.3281Z" fill="#E13833"/>
<path fill-rule="evenodd" clip-rule="evenodd" d="M17.6248 38.3511C16.4941 29.4258 12.9019 20.9574 7.20915 13.925C14.6893 8.28785 23.296 4.34155 32.437 2.35731C33.2346 3.64812 33.9906 4.96162 34.7036 6.29676C27.8434 6.78015 21.0798 8.33535 14.6725 10.9201L13.4273 11.422L13.9753 12.6516C17.5633 20.7015 18.8148 29.6527 17.6248 38.3511Z" fill="black"/>
<path fill-rule="evenodd" clip-rule="evenodd" d="M15.8945 37.5263C12.4621 29.6575 6.98999 22.8108 0 17.7315C5.77315 10.3418 13.0689 4.29249 21.3877 0C22.4075 0.960982 23.3973 1.94993 24.3567 2.9658C17.8737 5.22498 11.7596 8.48472 6.24812 12.6389L4.91621 13.6421L5.9665 14.9398C11.251 21.4667 14.663 29.2764 15.8945 37.5263Z" fill="#E13833"/>
<path d="M106.782 37.571C108.845 36.9354 111.436 36.0416 113.189 35.1346C110.17 36.4323 109.294 34.9161 109.188 34.3865C108.114 35.1346 107.105 35.8563 106.242 36.4786C105.675 36.8891 106.116 37.7763 106.782 37.571Z" fill="black"/>
<path d="M132.938 27.1765L141.27 20.3638C141.27 20.3638 138.6 22.8002 138.534 24.0317C138.237 24.3826 132.938 27.1765 132.938 27.1765Z" fill="black"/>
<path d="M132.964 25.1771C132.964 25.1771 139.048 21.0458 140.683 19.5098C138.646 21.0259 137.908 20.8736 137.38 20.6551C134.23 23.8596 132.964 25.1771 132.964 25.1771Z" fill="black"/>
<path d="M121.106 34.9095C121.106 34.9095 126.84 31.5528 128.442 30.4405C127.862 30.8775 126.893 32.1222 126.834 32.9432L121.106 34.9095Z" fill="black"/>
<path d="M152.133 21.6416C151.724 19.0265 151.328 16.5503 150.926 13.9682C150.676 14.1735 150.471 14.339 150.274 14.5045C148.791 15.7956 147.149 16.8284 145.304 17.5236C144.677 17.7553 144.111 17.7487 143.524 17.3779C142.39 16.6562 141.223 15.9876 140.07 15.2924C140.498 14.7296 140.979 14.5376 141.639 14.6171C142.548 14.723 143.471 14.7495 144.387 14.7561C144.664 14.7561 145.007 14.6568 145.218 14.478C148.428 11.7503 151.618 9.00272 154.809 6.24852C155.685 5.49376 156.7 5.11638 157.847 5.14286C158.843 5.16272 159.258 5.79831 158.836 6.70534C158.619 7.17541 158.263 7.61238 157.88 7.96328C156.944 8.82397 155.969 9.63169 154.993 10.446C154.723 10.6711 154.585 10.9029 154.558 11.2736C154.347 13.9947 154.09 16.7092 153.892 19.4303C153.846 20.0328 153.649 20.4764 153.148 20.814C152.818 21.0325 152.541 21.304 152.133 21.6416Z" fill="black"/>
<path d="M143.32 10.2275C144.064 9.57872 144.585 8.75114 145.785 8.92989C146.991 9.11527 148.224 9.12189 149.45 9.20796C149.549 9.21458 149.654 9.23445 149.858 9.26093C148.949 10.0289 148.118 10.7373 147.274 11.4325C147.195 11.4987 147.037 11.5384 146.938 11.5053C145.818 11.1544 144.704 10.7903 143.59 10.4196C143.504 10.4063 143.445 10.3269 143.32 10.2275Z" fill="black"/>
</svg>
