<svg width="24" height="24" viewBox="0 0 24 24" fill="none" xmlns="http://www.w3.org/2000/svg">
<g clip-path="url(#clip0_405_45874)">
<path d="M13.1588 19.7266C12.6081 19.8683 12.0306 19.9436 11.4356 19.9436C10.2384 19.9436 9.11249 19.6386 8.13126 19.1021C8.17106 17.5984 9.16284 16.9599 10.9394 18.1623C11.7528 18.7129 12.8715 16.9469 13.1588 19.7266ZM13.8425 19.5117C14.1554 19.3952 14.4576 19.2566 14.7471 19.0979L14.7202 18.7269C14.6219 17.369 14.7801 17.0202 13.8554 15.9021C13.4081 15.3614 12.7436 14.5168 13.0721 13.7709C13.3284 13.1892 13.9607 13.0774 14.5195 12.9916C14.8212 12.9452 15.2974 12.8857 15.5554 12.7153C15.8156 12.5434 15.8096 12.2072 15.7796 11.9277C15.7514 11.6653 15.5964 11.4945 15.4021 11.3304C15.0712 11.0511 14.6836 10.832 14.3447 10.5526C13.0131 9.45442 13.1151 8.03448 13.7154 6.53875L13.717 6.53486C13.0028 6.28464 12.2352 6.14809 11.4356 6.14809C10.4291 6.14809 9.47301 6.36386 8.61084 6.75132L8.64716 6.86786C8.91777 7.73575 9.79874 7.77995 10.5699 7.77395C10.975 7.77081 11.5223 7.71807 11.9076 7.82036C12.3068 7.92634 12.6021 8.22803 12.6203 8.653C12.6343 8.97798 12.4722 9.27259 12.286 9.52656C11.6961 10.3314 11.8082 11.2096 12.0235 12.1204C12.1221 12.5378 12.266 13.021 12.2561 13.4495C12.2403 14.1285 11.8208 14.5759 11.1477 14.6683C10.5743 14.747 10.1864 14.3864 9.88706 13.9539C9.84046 13.8866 9.73452 13.7165 9.64068 13.5884C9.57904 13.7017 9.51402 13.8349 9.47479 13.899C9.20404 14.3406 8.80537 14.6145 8.26645 14.5624C7.95918 14.5327 7.69729 14.4122 7.45846 14.2208C7.41346 14.1848 7.36284 14.1358 7.31287 14.0897C7.30279 14.0979 7.2906 14.1085 7.28071 14.1186C7.29341 14.2072 7.36973 14.3896 7.39565 14.4528C7.51766 14.7505 7.63649 15.0316 7.71552 15.3457C7.98313 16.4092 7.68834 17.3647 7.09457 18.2611L7.03232 18.3551C7.1706 18.4699 7.31343 18.5794 7.46048 18.6833C7.55971 17.9567 7.89206 17.268 8.61435 16.968C9.53099 16.5872 10.563 17.0602 11.3245 17.5739C11.3896 17.5793 11.5585 17.5342 11.6135 17.52C11.8905 17.4485 12.1454 17.3822 12.4362 17.4101C13.4758 17.5103 13.7397 18.6395 13.8425 19.5117ZM23.0616 2.7152L21.4076 0.606387C21.1902 0.329121 20.77 0.329121 20.5526 0.606387L18.8986 2.7152C18.7585 2.89384 18.8853 3.15451 19.1123 3.15451H19.9689V13.0458C19.9689 17.7588 16.1486 21.5791 11.4356 21.5791C6.72262 21.5791 2.90235 17.7588 2.90235 13.0458C2.90235 8.33284 6.72266 4.51257 11.4356 4.51257C13.7921 4.51257 15.9254 5.4677 17.4696 7.01186V4.38395C15.7594 3.19032 13.6793 2.49015 11.4356 2.49015C5.60605 2.49015 0.879883 7.21628 0.879883 13.0459C0.879883 18.8755 5.6061 23.6016 11.4356 23.6016C17.2652 23.6016 21.9913 18.8755 21.9913 13.0459V3.15456H22.8479C23.0746 3.15456 23.2018 2.89384 23.0616 2.7152ZM7.97591 7.0772C5.92016 8.27139 4.53787 10.4972 4.53787 13.0458C4.53787 14.9251 5.28941 16.6289 6.50835 17.8729C8.1643 15.3729 5.7674 14.42 6.88541 13.5311C7.63677 12.9338 7.67127 13.7986 8.33404 13.8626C9.04288 13.9311 8.94023 12.7144 9.6532 12.7662C10.2659 12.8107 10.4894 14.049 11.0521 13.9718C12.5248 13.7696 10.1229 11.2886 11.7189 9.11096C12.8573 7.55771 8.77874 9.65181 7.97591 7.0772ZM18.3334 13.0458C18.3334 10.2849 16.7112 7.90276 14.368 6.80064C12.8853 10.4949 16.2779 9.98101 16.4787 11.8527C16.8122 14.9609 11.8994 12.4343 14.3971 15.454C15.4796 16.7627 15.3216 17.2965 15.4215 18.6761C17.1835 17.4264 18.3334 15.3704 18.3334 13.0458Z" fill="#0048B4"/>
</g>
<defs>
<clipPath id="clip0_405_45874">
<rect width="24" height="24" fill="white"/>
</clipPath>
</defs>
</svg>
