<svg width="22" height="16" viewBox="0 0 22 16" fill="none" xmlns="http://www.w3.org/2000/svg">
<path d="M12.8386 10.4077C12.2913 10.762 11.6555 10.9494 11 10.9494C10.3446 10.9494 9.70879 10.762 9.16145 10.4077L0.14648 4.57159C0.0964648 4.53922 0.0477383 4.50546 0 4.47075V14.0339C0 15.1303 0.916309 16.0005 2.02525 16.0005H19.9747C21.1038 16.0005 22 15.1107 22 14.0339V4.4707C21.9521 4.5055 21.9033 4.53934 21.8532 4.57176L12.8386 10.4077Z" fill="#0048B4"/>
<path d="M0.861523 3.52956L9.8765 9.36573C10.2178 9.58666 10.6089 9.69711 11 9.69711C11.3911 9.69711 11.7822 9.58662 12.1235 9.36573L21.1385 3.52956C21.6779 3.18053 22 2.59639 22 1.96593C22 0.881889 21.0918 0 19.9754 0H2.02456C0.908231 4.17245e-05 0 0.881931 0 1.96698C0 2.59639 0.322094 3.18053 0.861523 3.52956Z" fill="#0048B4"/>
</svg>
